<?xml version="1.0" encoding="UTF-8" standalone="no"?>
<!-- Created with Inkscape (http://www.inkscape.org/) -->

<svg
   xmlns:dc="http://purl.org/dc/elements/1.1/"
   xmlns:cc="http://creativecommons.org/ns#"
   xmlns:rdf="http://www.w3.org/1999/02/22-rdf-syntax-ns#"
   xmlns:svg="http://www.w3.org/2000/svg"
   xmlns="http://www.w3.org/2000/svg"
   xmlns:sodipodi="http://sodipodi.sourceforge.net/DTD/sodipodi-0.dtd"
   xmlns:inkscape="http://www.inkscape.org/namespaces/inkscape"
   width="360.86954"
   height="354.33072"
   id="svg2"
   version="1.1"
   inkscape:version="0.48.5 r10040"
   sodipodi:docname="datos-abiertos.svg">
  <defs
     id="defs4" />
  <sodipodi:namedview
     id="base"
     pagecolor="#ffffff"
     bordercolor="#666666"
     borderopacity="1.0"
     inkscape:pageopacity="0.0"
     inkscape:pageshadow="2"
     inkscape:zoom="0.69321738"
     inkscape:cx="240.73996"
     inkscape:cy="117.47549"
     inkscape:document-units="px"
     inkscape:current-layer="layer1"
     showgrid="false"
     inkscape:window-width="1280"
     inkscape:window-height="752"
     inkscape:window-x="0"
     inkscape:window-y="29"
     inkscape:window-maximized="1"
     fit-margin-top="0"
     fit-margin-left="0"
     fit-margin-right="0"
     fit-margin-bottom="0" />
  <metadata
     id="metadata7">
    <rdf:RDF>
      <cc:Work
         rdf:about="">
        <dc:format>image/svg+xml</dc:format>
        <dc:type
           rdf:resource="http://purl.org/dc/dcmitype/StillImage" />
        <dc:title></dc:title>
      </cc:Work>
    </rdf:RDF>
  </metadata>
  <g
     inkscape:label="Capa 1"
     inkscape:groupmode="layer"
     id="layer1"
     transform="translate(-124.0992,-428.42356)">
    <g
       id="g4460">
      <path
         sodipodi:nodetypes="ccccc"
         inkscape:connector-curvature="0"
         id="rect2985-6-6"
         d="m 259.82649,470.21341 35,0 0,270.751 -35,0 z"
         style="fill:#0f0f0f;fill-opacity:1" />
      <path
         sodipodi:nodetypes="ccccc"
         inkscape:connector-curvature="0"
         id="rect2985-6-6-6"
         d="m 289.82649,470.21341 5,0 0,270.751 -5,0 z"
         style="fill:#999999;fill-opacity:1" />
      <path
         id="rect3032"
         d="m 427.90625,543.4375 c -8.28579,0 -15.21907,5.76678 -17.03125,13.5 l -10.78125,0 -8,0 0,8 0,36.9375 -23.53125,0 0,-11.28125 c 7.73322,-1.81218 13.5,-8.74545 13.5,-17.03125 0,-9.66498 -7.83501,-17.5 -17.5,-17.5 -9.66498,0 -17.5,7.83502 -17.5,17.5 0,8.28877 5.7626,15.2221 13.5,17.03125 l 0,11.28125 -97.28125,0 0,7.71875 187.15625,0 c 1.7637,7.79967 8.69834,13.65625 17.03125,13.65625 9.66499,0 17.5,-7.83501 17.5,-17.5 0,-9.66498 -7.83501,-17.5 -17.5,-17.5 -8.33291,0 -15.26755,5.82534 -17.03125,13.625 l -50.34375,0 0,-36.9375 10.78125,0 c 1.80916,7.73741 8.74249,13.5 17.03125,13.5 9.66499,0 17.5,-7.83501 17.5,-17.5 0,-9.66498 -7.83501,-17.5 -17.5,-17.5 z m 0,7.5 c 5.52285,0 10,4.47715 10,10 0,5.52285 -4.47715,10 -10,10 -5.52286,0 -10,-4.47715 -10,-10 0,-5.52285 4.47714,-10 10,-10 z m -63.34375,12.625 c 5.52285,0 10,4.47715 10,10 0,5.52285 -4.47715,10 -10,10 -5.52286,0 -10,-4.47715 -10,-10 0,-5.52285 4.47714,-10 10,-10 z M 467.46875,595.75 c 5.52285,0 10,4.47715 10,10 0,5.52285 -4.47715,10 -10,10 -5.52286,0 -10,-4.47715 -10,-10 0,-5.52285 4.47714,-10 10,-10 z"
         style="fill:#000080;fill-opacity:1"
         inkscape:connector-curvature="0" />
      <path
         sodipodi:nodetypes="cccccccsssccccsssccccsssccccsssssssssssssss"
         inkscape:connector-curvature="0"
         id="rect3032-6"
         d="m 263.46875,615.875 0,7.71875 62.84375,0 0,22.90625 53.96875,0 0,88 18.78125,0 c 1.80916,7.7374 8.74249,13.5 17.03125,13.5 9.66499,0 17.5,-7.83502 17.5,-17.5 0,-9.66499 -7.83501,-17.5 -17.5,-17.5 -8.28579,0 -15.21907,5.76678 -17.03125,13.5 l -10.78125,0 0,-36 50.78125,0 c 1.80916,7.7374 8.74249,13.5 17.03125,13.5 9.66499,0 17.5,-7.83502 17.5,-17.5 0,-9.66499 -7.83501,-17.5 -17.5,-17.5 -8.28579,0 -15.21907,5.76678 -17.03125,13.5 l -50.78125,0 0,-36 10.78125,0 c 1.80916,7.73741 8.74249,13.5 17.03125,13.5 9.66499,0 17.5,-7.83501 17.5,-17.5 0,-9.66498 -7.83501,-17.5 -17.5,-17.5 -8.28579,0 -15.21907,5.76678 -17.03125,13.5 l -64.75,0 0,-22.625 z m 152.625,16.625 c 5.52285,0 10,4.47715 10,10 0,5.52285 -4.47715,10 -10,10 -5.52286,0 -10,-4.47715 -10,-10 0,-5.52285 4.47714,-10 10,-10 z m 40,44 c 5.52285,0 10,4.47715 10,10 0,5.52285 -4.47715,10 -10,10 -5.52286,0 -10,-4.47715 -10,-10 0,-5.52285 4.47714,-10 10,-10 z m -40,44 c 5.52285,0 10,4.47715 10,10 0,5.52285 -4.47715,10 -10,10 -5.52286,0 -10,-4.47715 -10,-10 0,-5.52285 4.47714,-10 10,-10 z"
         style="fill:#ff0000;fill-opacity:1" />
      <path
         sodipodi:nodetypes="sccccccccccsssccccsssccccssssssssssssssssss"
         inkscape:connector-curvature="0"
         id="rect3032-6-4"
         d="m 467.46875,442.03125 c -8.28579,0 -15.21907,5.76678 -17.03125,13.5 -35.01042,0 -105.03125,0 -105.03125,0 l 0,70.84375 -15.28125,0 0,61.5 -66.84375,0 0,7.71875 74.84375,0 0,-61.21875 22.46875,0 c 1.80916,7.7374 8.71124,13.5 17,13.5 9.66499,0 17.5,-7.83502 17.5,-17.5 0,-9.66499 -7.83501,-17.5 -17.5,-17.5 -8.28579,0 -15.18782,5.76678 -17,13.5 l -7.1875,0 0,-27.5 54.5625,0 c 2.05836,7.37477 8.78113,12.78125 16.8125,12.78125 9.66499,0 17.5,-7.83501 17.5,-17.5 0,-9.66498 -7.83501,-17.5 -17.5,-17.5 -8.54267,0 -15.61949,6.1233 -17.15625,14.21875 l -54.21875,0 0,-27.34375 97.03125,0 c 1.80916,7.73741 8.74249,13.5 17.03125,13.5 9.66499,0 17.5,-7.83501 17.5,-17.5 0,-9.66498 -7.83501,-17.5 -17.5,-17.5 z m 0,7.5 c 5.52285,0 10,4.47715 10,10 0,5.52285 -4.47715,10 -10,10 -5.52286,0 -10,-4.47715 -10,-10 0,-5.52285 4.47714,-10 10,-10 z m -42.6875,34.625 c 5.52285,0 10,4.47715 10,10 0,5.52285 -4.47715,10 -10,10 -5.52286,0 -10,-4.47715 -10,-10 0,-5.52285 4.47714,-10 10,-10 z m -47.1875,36.21875 c 5.52285,0 10,4.47715 10,10 0,5.52285 -4.47715,10 -10,10 -5.52286,0 -10,-4.47715 -10,-10 0,-5.52285 4.47714,-10 10,-10 z"
         style="fill:#ffcc00;fill-opacity:1" />
      <path
         sodipodi:nodetypes="ccccc"
         inkscape:connector-curvature="0"
         id="rect2985-6"
         d="m 124.0992,470.80208 141.12228,-42.37852 0,354.33071 -141.12228,-41.20141 z"
         style="fill:#4d4d4d;fill-opacity:1" />
      <path
         transform="matrix(21.006219,0,0,45.238982,-359.55357,-7493.7296)"
         d="m 29.117877,179.03406 c 0,0.15808 -0.128152,0.28623 -0.286235,0.28623 -0.158083,0 -0.286235,-0.12815 -0.286235,-0.28623 0,-0.15809 0.128152,-0.28624 0.286235,-0.28624 0.158083,0 0.286235,0.12815 0.286235,0.28624 z"
         sodipodi:ry="0.28623471"
         sodipodi:rx="0.28623471"
         sodipodi:cy="179.03406"
         sodipodi:cx="28.831642"
         id="path3012"
         style="fill:#ffffff;fill-opacity:1"
         sodipodi:type="arc" />
    </g>
  </g>
</svg>
